<?xml version="1.0" encoding="utf-8"?>
<!-- Generator: Adobe Illustrator 23.1.0, SVG Export Plug-In . SVG Version: 6.00 Build 0)  -->
<svg version="1.1" id="Layer_1" xmlns="http://www.w3.org/2000/svg" xmlns:xlink="http://www.w3.org/1999/xlink" x="0px" y="0px"
	 viewBox="0 0 317.59 216.33" enable-background="new 0 0 317.59 216.33" xml:space="preserve">
<path fill="#343434" d="M316.04,98.85l-11.77-30.51c-3.06-7.94-10.84-13.27-19.35-13.27h-66.59c-4.31,0-7.81,3.5-7.81,7.81v48.01
	h-6.36V71.32H135.6v39.57h-8.95V80.17h-12.16L91.96,15.63h156.29l5.01,6.84l-4.99,6.74h-63.62l-11.97,9.56h-7.91l-11.97-9.56h-35.49
	v15.62h30.01l11.97,9.56h18.86l11.97-9.56h102.75l16.51-22.31L292.9,0H83.77h-2.8H40.9c-4.2,0-7.65,3.32-7.8,7.52l-2.71,72.64H17.7
	v30.72H0v60.29h24.58c-2.45,4.38-3.86,9.41-3.86,14.77c0,16.76,13.63,30.39,30.39,30.39c14.05,0,25.88-9.6,29.34-22.58h2.75
	c3.46,12.98,15.28,22.58,29.34,22.58c14.05,0,25.88-9.6,29.34-22.58h86.38c3.46,12.98,15.28,22.58,29.34,22.58
	c16.76,0,30.39-13.63,30.39-30.39c0-5.36-1.41-10.39-3.85-14.77h17.81c8.63,0,15.64-7.02,15.64-15.64V107.2
	C317.59,104.33,317.07,101.52,316.04,98.85z M289.69,73.96l11.77,30.52c0.34,0.87,0.51,1.78,0.51,2.72v5.79l-47.52-10.4v-31.9h30.48
	C287.02,70.68,288.94,72,289.69,73.96z M139.09,171.18h50.18l0,0h29.06c0.01,0,0.01,0,0.02,0h12.73c-1.21,2.17-2.15,4.51-2.8,6.96
	H141.9C141.23,175.69,140.3,173.35,139.09,171.18z M151.23,86.93h37.32v23.95h-37.32L151.23,86.93L151.23,86.93z M289.99,22.47
	L285,29.21h-17.29l4.95-6.69l-5.05-6.89h17.36L289.99,22.47z M48.43,15.62h27l22.52,64.54H46.02L48.43,15.62z M33.33,95.78h4.59
	h71.03h2.08v15.1H33.32v-15.1H33.33z M15.62,126.5h2.08h108.95h8.95h68.56h6.36v29.05h-41.98l0,0H50.88l0,0H15.63V126.5H15.62z
	 M77.66,171.18h8.35c-1.21,2.17-2.15,4.51-2.8,6.96h-2.75C79.8,175.69,78.87,173.35,77.66,171.18z M51.12,200.72
	c-8.15,0-14.77-6.63-14.77-14.77c0-8.15,6.63-14.77,14.77-14.77c8.15,0,14.77,6.63,14.77,14.77
	C65.89,194.1,59.26,200.72,51.12,200.72z M112.55,200.72c-8.15,0-14.77-6.63-14.77-14.77c0-8.15,6.63-14.77,14.77-14.77
	c8.15,0,14.77,6.63,14.77,14.77C127.32,194.1,120.69,200.72,112.55,200.72z M272.37,185.95c0,8.15-6.63,14.77-14.77,14.77
	c-8.14,0-14.77-6.63-14.77-14.77c0-8.15,6.63-14.77,14.77-14.77C265.74,171.18,272.37,177.81,272.37,185.95z M226.15,155.56v-44.68
	v-40.2h12.68v44.47l63.14,13.82l-0.01,26.58L226.15,155.56L226.15,155.56L226.15,155.56z"/>
</svg>
