<?xml version="1.0" encoding="utf-8"?>
<!-- Generator: Adobe Illustrator 23.1.0, SVG Export Plug-In . SVG Version: 6.00 Build 0)  -->
<svg version="1.1" id="Layer_1" xmlns="http://www.w3.org/2000/svg" xmlns:xlink="http://www.w3.org/1999/xlink" x="0px" y="0px"
	 viewBox="0 0 317.6 189.9" style="enable-background:new 0 0 317.6 189.9;" xml:space="preserve">
<style type="text/css">
	.st0{fill:#343434;}
</style>
<g>
	<path class="st0" d="M316.5,177.7l-26.2-42.8V99c0-4-3.3-7.3-7.3-7.3h-29c-4,0-7.3,3.3-7.3,7.3v49.7h-10
		c-3.6-14.4-16.6-25.1-32.1-25.1H33.2C14.9,123.6,0,138.5,0,156.7s14.9,33.1,33.1,33.1h171.4c16,0,29.4-11.4,32.5-26.6h9.7v18.2
		c0,4,3.3,7.3,7.3,7.3h56.2c2.6,0,5.1-1.4,6.4-3.7C317.9,182.8,317.9,180,316.5,177.7z M204.6,175.2H33.2
		c-10.2,0-18.5-8.3-18.5-18.5c0-10.2,8.3-18.5,18.5-18.5h171.4c10.2,0,18.5,8.3,18.5,18.5C223.1,166.9,214.8,175.2,204.6,175.2z
		 M261.3,174.2v-67.9h14.3V137c0,1.3,0.4,2.7,1.1,3.8l20.4,33.4H261.3z"/>
	<rect x="75.5" y="149.4" class="st0" width="17.6" height="14.6"/>
	<rect x="40.4" y="149.4" class="st0" width="17.6" height="14.6"/>
	<rect x="110.6" y="149.4" class="st0" width="17.6" height="14.6"/>
	<rect x="180.9" y="149.4" class="st0" width="17.6" height="14.6"/>
	<rect x="145.8" y="149.4" class="st0" width="17.6" height="14.6"/>
	<path class="st0" d="M34.5,81.4h20.8c0.7,0,1.4-0.1,2-0.3v0.3h25.9l10.2,17.4c1.3,2.2,3.7,3.6,6.3,3.6h36c2.7,0,5.2-1.5,6.5-3.9
		l9.8-18.8h52.6c0.7,0,1.3,0.5,1.4,1.2l6.9,38.1l14.4-2.6l-6.9-38.1c-1.4-7.7-8-13.2-15.8-13.2h-16V36.8L176,26.1l-9.4,11.2l7.4,6.2
		v21.5h-21.2l-15.3-44.2c0-0.1-0.1-0.3-0.2-0.4C132.1,8,120.1,0,106.6,0H55.2c-4,0-7.3,3.3-7.3,7.3v59.4H27.2c-4,0-7.3,3.3-7.3,7.3
		v37.6h14.6V81.4z M80,14.6v37.4h14.6V14.6h12c7.5,0,14.1,4.4,17.1,11.3l15.9,45.9l-8.4,16h-27.4L93.7,70.3
		c-1.3-2.2-3.7-3.6-6.3-3.6H62.6V14.6H80z"/>
</g>
</svg>
