<?xml version="1.0" encoding="utf-8"?>
<!-- Generator: Adobe Illustrator 23.1.0, SVG Export Plug-In . SVG Version: 6.00 Build 0)  -->
<svg version="1.1" id="Layer_1" xmlns="http://www.w3.org/2000/svg" xmlns:xlink="http://www.w3.org/1999/xlink" x="0px" y="0px"
	 viewBox="0 0 223.3 141.96" enable-background="new 0 0 223.3 141.96" xml:space="preserve">
<g>
	<path fill="#343434" d="M19.59,106.5c0,9.29,7.56,16.85,16.84,16.85s16.84-7.56,16.84-16.85s-7.56-16.84-16.84-16.84
		S19.59,97.21,19.59,106.5z M30.12,106.5c0-3.49,2.84-6.32,6.32-6.32c3.49,0,6.32,2.84,6.32,6.32c0,3.49-2.84,6.32-6.32,6.32
		C32.95,112.82,30.12,109.98,30.12,106.5z"/>
	<path fill="#343434" d="M0.98,106.5c0,19.55,15.91,35.46,35.46,35.46c13.16,0,24.65-7.22,30.76-17.9h30.01
		c6.12,10.68,17.6,17.9,30.76,17.9c7.48,0,14.64-2.3,20.69-6.66l-6.14-8.54c-4.25,3.06-9.28,4.68-14.55,4.68
		c-13.75,0-24.94-11.19-24.94-24.94s11.19-24.94,24.94-24.94c6.32,0,12.34,2.37,16.97,6.66c0.49,0.45,0.93,0.94,1.38,1.43h-18.87
		v0.03c-9.04,0.28-16.32,7.71-16.32,16.82c0,9.29,7.56,16.85,16.84,16.85h41.88v12.84c0,2.91,2.36,5.26,5.26,5.26h40.43
		c1.9,0,3.66-1.03,4.59-2.69s0.89-3.69-0.1-5.32l-18.83-30.78V76.81c0-2.91-2.36-5.26-5.26-5.26h-20.83c-2.91,0-5.26,2.36-5.26,5.26
		v12.84h-10.69c-1.84-3.39-4.24-6.51-7.07-9.14c-6.58-6.11-15.15-9.47-24.13-9.47c-9.91,0-18.88,4.1-25.32,10.68H75.49v10.52h20.02
		c-1.93,4.37-3.01,9.18-3.01,14.25c0,2.41,0.25,4.76,0.71,7.04H71.17c0.46-2.28,0.71-4.63,0.71-7.04
		c0-19.55-15.91-35.46-35.46-35.46c-0.67,0-1.32,0.06-1.98,0.1l1.69-6.78h99.63V53.83h-11.53L112.49,5
		c-0.57-2.36-2.68-4.03-5.11-4.03H61.65c-2.91,0-5.26,2.36-5.26,5.26v47.6H48V31.04l-9.09-7.64l-6.77,8.05l5.34,4.49v17.89h-5.46
		c-2.42,0-4.52,1.65-5.1,3.99l-3.96,15.89C10.08,79.03,0.98,91.71,0.98,106.5z M66.93,40.48h14v13.36h-14V40.48z M113.43,53.84
		H91.45V35.22c0-2.91-2.36-5.26-5.26-5.26H66.93V11.5h36.32L113.43,53.84z M180.38,82.07h10.3v22.07c0,0.97,0.27,1.92,0.77,2.75
		l14.7,24.03h-25.78L180.38,82.07L180.38,82.07z M169.86,112.82h-26.28c0.8-1.95,1.24-4.09,1.24-6.32c0-2.24-0.45-4.37-1.24-6.32
		h26.28V112.82z M127.98,100.18c3.49,0,6.32,2.84,6.32,6.32c0,3.49-2.84,6.32-6.32,6.32c-3.49,0-6.32-2.84-6.32-6.32
		C121.66,103.01,124.49,100.18,127.98,100.18z M11.5,106.5c0-13.75,11.19-24.94,24.94-24.94s24.94,11.19,24.94,24.94
		s-11.19,24.94-24.94,24.94C22.69,131.43,11.5,120.25,11.5,106.5z"/>
	<rect x="145.76" y="18.59" fill="#343434" width="10.52" height="50.9"/>
	<path fill="#343434" d="M162.32,44.33V33.81c1.32,0,2.4-1.08,2.4-2.4c0-1.32-1.07-2.4-2.4-2.4V18.49c7.12,0,12.92,5.8,12.92,12.92
		S169.44,44.33,162.32,44.33z"/>
</g>
</svg>
