<?xml version="1.0" encoding="utf-8"?>
<!-- Generator: Adobe Illustrator 23.1.0, SVG Export Plug-In . SVG Version: 6.00 Build 0)  -->
<svg version="1.1" id="Layer_1" xmlns="http://www.w3.org/2000/svg" xmlns:xlink="http://www.w3.org/1999/xlink" x="0px" y="0px"
	 viewBox="0 0 399.29 159.36" enable-background="new 0 0 399.29 159.36" xml:space="preserve">
<g>
	<path fill="#343434" d="M396.72,44.07l-11.55-29.94c-3.01-7.79-10.63-13.02-18.98-13.02h-65.34c-4.23,0-7.66,3.43-7.66,7.66v29.54
		h-21.16l-28.66,32.14H40.45H0v15.33h47.37h245.82v13.93H43.91v15.33h13.47c-2.4,4.3-3.78,9.23-3.78,14.5
		c0,16.44,13.38,29.82,29.82,29.82s29.82-13.38,29.82-29.82c0-5.26-1.38-10.2-3.78-14.5h191.39c0.01,0,0.01,0,0.02,0h12.49
		c-1.19,2.13-2.1,4.42-2.75,6.83H121.53v15.33h189.06c3.4,12.74,15,22.16,28.79,22.16c16.44,0,29.82-13.38,29.82-29.82
		c0-5.26-1.38-10.2-3.78-14.49h17.47c8.47,0,15.35-6.89,15.35-15.35V52.28C398.24,49.46,397.73,46.7,396.72,44.07z M83.41,144.03
		c-7.99,0-14.49-6.5-14.49-14.49s6.5-14.49,14.49-14.49s14.49,6.5,14.49,14.49S91.41,144.03,83.41,144.03z M370.87,19.65
		l11.55,29.93c0.33,0.86,0.5,1.77,0.5,2.68v5.68L336.3,47.73v-31.3h29.9C368.28,16.43,370.12,17.7,370.87,19.65z M263.9,70.45
		l14.99-16.81h14.29v16.81H263.9z M353.87,129.53c0,7.99-6.5,14.49-14.49,14.49s-14.49-6.5-14.49-14.49s6.5-14.49,14.49-14.49
		S353.87,121.54,353.87,129.53z M308.52,99.71V70.45V16.43h12.45v43.63l61.95,13.56l-0.01,26.08h-74.39V99.71z"/>
</g>
</svg>
