<?xml version="1.0" encoding="utf-8"?>
<!-- Generator: Adobe Illustrator 23.1.0, SVG Export Plug-In . SVG Version: 6.00 Build 0)  -->
<svg version="1.1" id="Layer_1" xmlns="http://www.w3.org/2000/svg" xmlns:xlink="http://www.w3.org/1999/xlink" x="0px" y="0px"
	 viewBox="0 0 213.4 189.9" style="enable-background:new 0 0 213.4 189.9;" xml:space="preserve">
<style type="text/css">
	.st0{fill:#343434;}
</style>
<g>
	<path class="st0" d="M201.9,85.3c-0.7-0.5-1.4-1.1-2.2-1.5l-8.7-5.6V61.6L145.5,4.8c-2.1-2.7-5.5-4.4-9.4-4.8
		c-4.1-0.4-8.1,0.7-10.9,3.1L31.4,82.4H19.6c-2.9,0-5.3,2.4-5.3,5.3v49.7c0,2.9,2.4,5.3,5.3,5.3H82c0,0,0,0,0,0c0,0,0,0,0,0h62.4
		c2.9,0,5.3-2.4,5.3-5.3v-17.7c0-27.6-22.5-50-50-50H82c-2.9,0-5.3,2.4-5.3,5.3v7.4H47.8L132,11.3c0.7-0.6,1.9-0.8,3.1-0.7
		c1.1,0.1,1.9,0.5,2.1,0.9l43.2,53.9v4.8l-41.3-39.7l-0.1,0.1l-4.3-4.2l-29.5,30.1l7.6,7.4L135,41.2L175,79.6
		c-0.1,0.5-0.3,1.1-0.3,1.6c-0.7,11.3-3.3,40-4.6,49.4c-0.5,3.3,0.8,6.6,3.3,8.8c1.7,1.5,3.9,2.2,6.1,2.2c0.9,0,1.9-0.1,2.8-0.4
		l8.6-2.6c13.3-4.1,22.5-16.2,22.6-29.5v0C213.5,99.7,209.3,91,201.9,85.3z M134.6,101.5h-29.3V80.8
		C118.1,82.6,128.9,90.5,134.6,101.5z M87.3,80.3h7.4v26.4c0,2.9,2.4,5.3,5.3,5.3h38.4c0.5,2.5,0.8,5.1,0.8,7.7v12.4H87.3V80.3z
		 M76.7,132.2H24.9v-13H57v-10.6H24.9V93h51.8L76.7,132.2z M187.8,128.4l-7,2.1c1.3-9.9,3.2-31.6,4.1-43.8l9,5.9
		c0.5,0.3,1,0.7,1.5,1c4.8,3.7,7.4,9.2,7.4,15.4C202.8,117.8,196.6,125.7,187.8,128.4z"/>
	<path class="st0" d="M144.2,151.8v10.6c4.7,0,8.5,3.8,8.5,8.5s-3.8,8.5-8.5,8.5H19.1c-4.7,0-8.5-3.8-8.5-8.5s3.8-8.5,8.5-8.5v-10.6
		C8.5,151.8,0,160.3,0,170.8s8.5,19.1,19.1,19.1h125.2c10.5,0,19.1-8.5,19.1-19.1S154.8,151.8,144.2,151.8z"/>
	<rect x="36" y="151.8" class="st0" width="12.7" height="10.6"/>
	<rect x="112.2" y="151.8" class="st0" width="12.7" height="10.6"/>
	<rect x="61.4" y="151.8" class="st0" width="12.7" height="10.6"/>
	<rect x="86.8" y="151.8" class="st0" width="12.7" height="10.6"/>
</g>
</svg>
