<?xml version="1.0" encoding="utf-8"?>
<!-- Generator: Adobe Illustrator 23.1.0, SVG Export Plug-In . SVG Version: 6.00 Build 0)  -->
<svg version="1.1" id="Layer_1" xmlns="http://www.w3.org/2000/svg" xmlns:xlink="http://www.w3.org/1999/xlink" x="0px" y="0px"
	 viewBox="0 0 302.33 163.2" enable-background="new 0 0 302.33 163.2" xml:space="preserve">
<path fill="none" d="M210.19,134.29c-3.46,0-6.27-2.82-6.27-6.27c0-3.46,2.81-6.27,6.27-6.27s6.27,2.81,6.27,6.27
	C216.46,131.48,213.65,134.29,210.19,134.29z"/>
<path fill="none" d="M272.41,125.68c0,0.96,0.26,1.9,0.77,2.72l14.59,23.85h-25.58v-48.48h10.23v21.91H272.41z"/>
<path fill="none" d="M251.75,134.29h-26.07c0.79-1.94,1.23-4.05,1.23-6.27c0-2.22-0.44-4.33-1.23-6.27h26.07V134.29z"/>
<path fill="none" d="M195.75,75.76h-21.81V57.28c0-2.88-2.34-5.22-5.22-5.22H149.6V33.74h36.04L195.75,75.76z"/>
<rect x="149.6" y="62.51" fill="none" width="13.9" height="13.26"/>
<path fill="none" d="M119.35,103.27c-13.64,0-24.75,11.1-24.75,24.74c0,13.64,11.1,24.75,24.75,24.75
	c13.64,0,24.75-11.1,24.75-24.75C144.1,114.37,132.99,103.27,119.35,103.27z M119.35,111.3c9.22,0,16.72,7.5,16.72,16.72
	s-7.5,16.72-16.72,16.72s-16.72-7.5-16.72-16.72C102.64,118.8,110.13,111.3,119.35,111.3z"/>
<path fill="none" d="M20.13,61.17c0.5-0.18,1-0.33,1.52-0.47l9.32-2.45c-2.59,10.35-7.04,29.27-8.67,37.8l-5.36-3.8
	c-6.64-4.7-9.61-13.04-7.24-20.29C11.4,66.78,15.1,62.94,20.13,61.17z"/>
<path fill="none" d="M125.62,128.02c0,3.46-2.81,6.27-6.27,6.27s-6.27-2.82-6.27-6.27c0-3.46,2.81-6.27,6.27-6.27
	C122.81,121.74,125.62,124.56,125.62,128.02z"/>
<path fill="#343434" d="M119.35,111.3c-9.22,0-16.72,7.5-16.72,16.72s7.5,16.72,16.72,16.72s16.72-7.5,16.72-16.72
	S128.57,111.3,119.35,111.3z M119.35,121.74c3.46,0,6.27,2.81,6.27,6.27c0,3.46-2.81,6.27-6.27,6.27s-6.27-2.82-6.27-6.27
	C113.08,124.56,115.89,121.74,119.35,121.74z"/>
<rect x="227.84" y="40.78" fill="#343434" width="10.44" height="50.51"/>
<path fill="#343434" d="M244.27,66.32V55.88c1.31,0,2.38-1.07,2.38-2.38s-1.07-2.38-2.38-2.38V40.68c7.07,0,12.82,5.75,12.82,12.82
	S251.33,66.32,244.27,66.32z"/>
<path fill="#343434" d="M11.79,99.52l6.38,4.51c0.67,0.48,1.4,0.84,2.15,1.09c1.79,0.59,3.74,0.54,5.53-0.19
	c2.63-1.07,4.5-3.41,5.02-6.25c1.48-8.17,7.21-32.56,9.71-42.08c0.13-0.49,0.19-0.98,0.2-1.47l43.7-20.91L96.67,59.1l7.99-3.92
	L88.53,22.27l-7.99,3.92l0.02,0.04L38.71,46.25l1.44-4.34L90.61,9.17c0.35-0.23,1.15-0.36,2.13-0.15c1.07,0.24,2.03,0.83,2.45,1.51
	l40.01,65.23h-4.36H120.4h-5.41c-2.4,0-4.49,1.63-5.07,3.96l-3.93,15.76c-12.79,5.27-21.82,17.86-21.82,32.53
	c0,19.4,15.78,35.19,35.19,35.19c13.06,0,24.46-7.17,30.53-17.76h29.78c6.07,10.59,17.47,17.76,30.53,17.76
	c7.42,0,14.52-2.29,20.53-6.61l-6.1-8.48c-4.22,3.04-9.21,4.64-14.43,4.64c-13.64,0-24.75-11.1-24.75-24.75
	c0-13.64,11.1-24.74,24.75-24.74c6.27,0,12.25,2.35,16.84,6.61c0.48,0.45,0.93,0.93,1.37,1.42h-18.73v0.03
	c-8.97,0.28-16.19,7.65-16.19,16.69c0,9.22,7.5,16.72,16.72,16.72h41.56v12.74c0,2.88,2.34,5.22,5.22,5.22h40.12
	c1.89,0,3.63-1.02,4.55-2.67c0.92-1.65,0.89-3.67-0.1-5.28l-18.68-30.54V98.55c0-2.88-2.34-5.22-5.22-5.22h-20.67
	c-2.88,0-5.22,2.34-5.22,5.22v12.74h-10.6c-1.83-3.37-4.21-6.46-7.01-9.07c-6.53-6.06-15.03-9.4-23.94-9.4
	c-9.84,0-18.73,4.07-25.13,10.6h-26.94v10.44h19.87c-1.91,4.33-2.99,9.11-2.99,14.14c0,2.39,0.24,4.73,0.7,6.98h-21.87
	c0.46-2.26,0.7-4.59,0.7-6.98c0-19.4-15.78-35.19-35.19-35.19c-0.66,0-1.31,0.06-1.97,0.1l1.68-6.73h22.54h10.44h65.88V75.74H206.5
	l-11.65-48.45c-0.56-2.35-2.66-4-5.08-4h-45.38c-2.88,0-5.22,2.34-5.22,5.22v36.68l-36.4-59.35c-1.7-2.74-4.64-4.75-8.08-5.52
	c-3.22-0.72-6.47-0.22-8.91,1.36L32.69,36.12l-4.51,13.64l-8.79,2.32c-0.75,0.2-1.49,0.42-2.21,0.68
	C9.6,55.43,3.79,61.41,1.25,69.18C-2.34,80.12,2,92.59,11.79,99.52z M149.6,62.51h13.9v13.26h-13.9V62.51z M149.6,33.75h36.04
	l10.1,42.01h-21.81V57.28c0-2.88-2.34-5.22-5.22-5.22h-19.12L149.6,33.75L149.6,33.75z M262.19,103.78h10.23v21.9
	c0,0.96,0.26,1.9,0.77,2.72l14.59,23.85H262.2v-48.47H262.19z M216.46,128.02c0,3.46-2.81,6.27-6.27,6.27s-6.27-2.82-6.27-6.27
	c0-3.46,2.81-6.27,6.27-6.27C213.65,121.74,216.46,124.56,216.46,128.02z M251.75,121.74v12.55h-26.07
	c0.79-1.94,1.23-4.05,1.23-6.27c0-2.22-0.44-4.33-1.23-6.27h26.07V121.74z M119.35,103.27c13.64,0,24.75,11.1,24.75,24.74
	c0,13.64-11.1,24.75-24.75,24.75c-13.64,0-24.75-11.1-24.75-24.75C94.61,114.37,105.71,103.27,119.35,103.27z M9.7,71.97
	c1.7-5.19,5.41-9.03,10.44-10.8c0.5-0.18,1-0.33,1.52-0.47l9.32-2.45c-2.59,10.35-7.04,29.27-8.67,37.8l-5.36-3.8
	C10.3,87.56,7.32,79.22,9.7,71.97z"/>
</svg>
