<?xml version="1.0" encoding="utf-8"?>
<!-- Generator: Adobe Illustrator 23.1.0, SVG Export Plug-In . SVG Version: 6.00 Build 0)  -->
<svg version="1.1" id="Layer_1" xmlns="http://www.w3.org/2000/svg" xmlns:xlink="http://www.w3.org/1999/xlink" x="0px" y="0px"
	 viewBox="0 0 243.19 160.1" enable-background="new 0 0 243.19 160.1" xml:space="preserve">
<line fill="none" x1="184.21" y1="160.1" x2="183.6" y2="160.1"/>
<path fill="#343434" d="M151.19,101.86l45.73-26.25l11.43,8.74v4.2h13.36V77.74l-23.83-18.21l-46.5,27.41l-0.13-7.98l47.2-27.6
	l31.38,24.65v8.39h13.36V69.51l-43.63-34.28L151.2,63.52V6.68c0-3.69-2.99-6.68-6.68-6.68H76.61c-3.69,0-6.68,2.99-6.68,6.68v41.01
	L55.4,50.12V25.93c0-2.14-1.03-4.16-2.77-5.41l-12.02-8.69l-7.82,10.83l9.26,6.69v23.01l-21.33,3.56c-3.22,0.54-5.58,3.32-5.58,6.59
	v21.35H6.68C2.99,83.86,0,86.85,0,90.54v42.84c0,3.69,2.99,6.68,6.68,6.68h13.94c2.98,11.51,13.42,20.04,25.84,20.04
	s22.86-8.53,25.84-20.04h5.12c2.98,11.51,13.42,20.04,25.84,20.04s22.86-8.53,25.84-20.04h15.43c3.69,0,6.68-2.99,6.68-6.68v-18.16
	 M69.92,61.25v22.62H28.48v-15.7L69.92,61.25z M137.83,13.37v31.04l-20.6-6.1V13.37H137.83z M137.83,71.34l-0.06,0.04l0.06,3.82
	v8.67H83.28v-30.5V13.38h20.6v29.93c0,2.96,1.95,5.56,4.78,6.4l29.17,8.64L137.83,71.34L137.83,71.34z M89.88,133.38
	c0-7.37,5.99-13.36,13.36-13.36s13.36,5.99,13.36,13.36s-5.99,13.36-13.36,13.36S89.88,140.75,89.88,133.38z M33.08,133.38
	c0-7.37,5.99-13.36,13.36-13.36s13.36,5.99,13.36,13.36s-5.99,13.36-13.36,13.36C39.07,146.74,33.08,140.75,33.08,133.38z
	 M13.34,97.22h8.46h54.8h61.23v29.48h-8.75c-2.98-11.51-13.42-20.04-25.84-20.04c-7.68,0-14.59,3.27-19.47,8.47H65.9
	c-4.88-5.2-11.79-8.47-19.47-8.47c-12.42,0-22.86,8.53-25.84,20.04h-7.26L13.34,97.22L13.34,97.22z"/>
</svg>
