<?xml version="1.0" encoding="utf-8"?>
<!-- Generator: Adobe Illustrator 23.1.0, SVG Export Plug-In . SVG Version: 6.00 Build 0)  -->
<svg version="1.1" id="Layer_1" xmlns="http://www.w3.org/2000/svg" xmlns:xlink="http://www.w3.org/1999/xlink" x="0px" y="0px"
	 viewBox="0 0 210.46 161.73" enable-background="new 0 0 210.46 161.73" xml:space="preserve">
<path fill="#343434" d="M52.3,128.87c4.15,0,7.51,3.36,7.51,7.51c0,4.15-3.36,7.51-7.51,7.51c-4.15,0-7.51-3.36-7.51-7.51
	S48.15,128.87,52.3,128.87z"/>
<path fill="#343434" d="M0,70.82v45.26c0,0.83,0.2,1.64,0.59,2.38l8.47,15.93c0.88,1.65,2.6,2.68,4.47,2.68h13.45
	c0.37,13.66,11.57,24.66,25.32,24.66c13.98,0,25.35-11.37,25.35-25.35s-11.37-25.35-25.35-25.35c-1.16,0-2.29,0.11-3.41,0.26v-9.11
	H79.3h104.22c1.61,4.45,2.35,9.23,2.12,14.1c-0.92,20.09-18.01,35.7-38.11,34.76c-10.03-0.46-19.37-5.12-25.86-12.55h40.86
	l15.2-14.69l-7.03-7.28l-12.26,11.84H82.15v10.12h27.06c7.98,13.32,22.28,21.94,37.85,22.66c0.72,0.03,1.45,0.05,2.16,0.05
	c24.72,0,45.37-19.52,46.52-44.46c0.23-4.99-0.36-9.88-1.65-14.56h6.25v5.75h10.12V92.06h-20.52c-1.75-3.14-3.83-6.13-6.31-8.85
	c-8.39-9.19-19.85-14.57-32.29-15.14c-17.84-0.8-34.35,8.54-42.9,24H93.4l21.05-17.33l-0.01-0.01c0.23-0.19,0.45-0.38,0.65-0.61
	c0.96-1.13,1.38-2.62,1.14-4.08l-9.64-59.92h8.97l2.69,8.91l9.69-2.92L123.08,0h-22.42H43.83c-2.79,0-5.06,2.26-5.06,5.06v60.72h-11
	V44.01l-3.62-7.81l-9.18,4.25l2.68,5.79v19.54H5.06C2.26,65.77,0,68.03,0,70.82z M105.3,65.77H87.64L77.36,36.63
	c-0.71-2.02-2.63-3.38-4.77-3.38H59.35c-2.79,0-5.06,2.26-5.06,5.06v27.46h-5.41V10.11h47.45L105.3,65.77z M64.41,43.37h4.6
	l7.9,22.4h-12.5V43.37z M177.84,92.06h-57.32c7.18-9.15,18.41-14.44,30.36-13.89c9.73,0.45,18.71,4.66,25.28,11.85
	C176.75,90.68,177.29,91.37,177.84,92.06z M48.89,92.06V75.88h48.25L77.49,92.06H48.89z M37.07,136.38c0-8.4,6.83-15.23,15.23-15.23
	c8.4,0,15.23,6.83,15.23,15.23s-6.83,15.23-15.23,15.23C43.9,151.62,37.07,144.78,37.07,136.38z M10.12,75.88h28.65v16.18v5.06
	v17.86c-4.47,2.83-7.99,7.01-9.99,11.98H16.56l-6.45-12.13L10.12,75.88L10.12,75.88z"/>
<rect x="139.09" y="109.55" fill="#343434" width="12.14" height="10.12"/>
<rect x="90.52" y="109.55" fill="#343434" width="12.14" height="10.12"/>
<rect x="114.81" y="109.55" fill="#343434" width="12.14" height="10.12"/>
</svg>
