<?xml version="1.0" encoding="utf-8"?>
<!-- Generator: Adobe Illustrator 23.1.0, SVG Export Plug-In . SVG Version: 6.00 Build 0)  -->
<svg version="1.1" id="Layer_1" xmlns="http://www.w3.org/2000/svg" xmlns:xlink="http://www.w3.org/1999/xlink" x="0px" y="0px"
	 viewBox="0 0 236.44 181.26" enable-background="new 0 0 236.44 181.26" xml:space="preserve">
<g>
	<path fill="#343434" d="M15.93,42.38v11.78c-2.29,0-4.14,1.78-4.14,3.98s1.86,3.97,4.14,3.97v11.78C7.15,73.89,0,66.82,0,58.13
		S7.15,42.38,15.93,42.38z"/>
	<path fill="#343434" d="M85.05,101.74H10.2v36.38h12.5c-3.5,4.53-5.6,10.18-5.6,16.33c0,14.78,12.03,26.81,26.81,26.81
		c12.76,0,23.44-8.96,26.14-20.92h4.63c2.7,11.95,13.38,20.92,26.14,20.92c12.96,0,23.8-9.24,26.27-21.48h35.84
		c2.48,12.24,13.32,21.48,26.27,21.48c14.78,0,26.81-12.03,26.81-26.81c0-6.15-2.1-11.8-5.6-16.33h14.23c6.51,0,11.8-5.29,11.8-11.8
		V89.85c0-2.16-0.39-4.28-1.17-6.3l-8.88-23.02c-2.31-5.99-8.17-10.01-14.59-10.01h-50.24c-3.25,0-5.89,2.64-5.89,5.89v45.33h-22.89
		L143.7,50.6c0.73-1.86,1.15-3.88,1.15-6c0-3.26-0.97-6.3-2.61-8.86l0.01-0.01L121.18,0H10.89v34.02h11.78V11.78H95l17.24,29.52
		c-0.12,0.6-0.2,1.22-0.26,1.85L85.05,101.74z M128.37,49.28c-2.58,0-4.68-2.1-4.68-4.68s2.1-4.68,4.68-4.68s4.68,2.1,4.68,4.68
		C133.06,47.18,130.96,49.28,128.37,49.28z M124.38,28.64c-1.69,0.42-3.27,1.1-4.71,2.01l-11.02-18.86h5.79L124.38,28.64z
		 M120.72,101.74h-22.7l20.29-44.14c2.79,2.16,6.27,3.46,10.07,3.46c0.35,0,0.7-0.03,1.05-0.05L120.72,101.74z M224.65,89.85v4.37
		l-35.85-7.85V62.3h22.99c1.58,0,3.03,0.99,3.6,2.47l8.88,23.02C224.52,88.45,224.65,89.14,224.65,89.85z M224.63,126.33h-57.19
		v-24.6V62.3h9.57v33.55l47.63,10.43L224.63,126.33z M167.98,138.12c-2.23,2.89-3.87,6.23-4.78,9.88h-36.41
		c-0.91-3.64-2.55-6.99-4.78-9.88h5.13h12.47h21.93h5.89H167.98z M74.67,148.56h-4.63c-0.87-3.86-2.58-7.4-4.92-10.44H79.6
		C77.25,141.16,75.54,144.7,74.67,148.56z M174.17,154.45c0-8.28,6.74-15.03,15.03-15.03c8.28,0,15.03,6.74,15.03,15.03
		c0,8.28-6.74,15.03-15.03,15.03S174.17,162.74,174.17,154.45z M85.78,154.45c0-8.28,6.74-15.03,15.03-15.03
		c8.28,0,15.03,6.74,15.03,15.03c0,8.28-6.74,15.03-15.03,15.03S85.78,162.74,85.78,154.45z M28.88,154.45
		c0-8.28,6.74-15.03,15.03-15.03c8.28,0,15.03,6.74,15.03,15.03c0,8.28-6.74,15.03-15.03,15.03S28.88,162.74,28.88,154.45z
		 M21.98,113.52h133.68v12.81h-16.04h-12.47h-81.3H33.38H21.99v-12.81H21.98z"/>
	<rect x="34.55" y="17.32" fill="#343434" width="57.74" height="11.78"/>
</g>
</svg>
