<?xml version="1.0" encoding="utf-8"?>
<!-- Generator: Adobe Illustrator 23.1.0, SVG Export Plug-In . SVG Version: 6.00 Build 0)  -->
<svg version="1.1" id="Layer_1" xmlns="http://www.w3.org/2000/svg" xmlns:xlink="http://www.w3.org/1999/xlink" x="0px" y="0px"
	 viewBox="0 0 197.12 212.94" enable-background="new 0 0 197.12 212.94" xml:space="preserve">
<g>
	<path fill="#343434" d="M132.66,176.88v10.86c3.95,0,7.17,3.22,7.17,7.17s-3.22,7.17-7.17,7.17H18.03c-3.95,0-7.17-3.22-7.17-7.17
		s3.22-7.17,7.17-7.17v-10.86C8.09,176.88,0,184.97,0,194.91s8.09,18.03,18.03,18.03h114.63c9.94,0,18.03-8.09,18.03-18.03
		S142.6,176.88,132.66,176.88z"/>
	<rect x="29.18" y="176.88" fill="#343434" width="13.03" height="10.86"/>
	<rect x="55.25" y="176.88" fill="#343434" width="13.03" height="10.86"/>
	<rect x="81.32" y="176.88" fill="#343434" width="13.03" height="10.86"/>
	<rect x="107.39" y="176.88" fill="#343434" width="13.03" height="10.86"/>
	<path fill="#343434" d="M117.16,92.15c-1.03-1.18-2.52-1.86-4.09-1.86H86.2c-3,0-5.43,2.43-5.43,5.43v28.89h-2.75L61.3,102.94
		c-1.03-1.33-2.62-2.11-4.3-2.11H43c-3,0-5.43,2.43-5.43,5.43v16.65H10.39c-3,0-5.43,2.43-5.43,5.43v36.03c0,3,2.43,5.43,5.43,5.43
		H86.2h7.87h51.19c2.56,0,4.76-1.78,5.31-4.28l5.54-25.48c0.36-1.68-0.09-3.43-1.22-4.73L117.16,92.15z M15.82,133.77H43
		c3,0,5.43-2.43,5.43-5.43v-16.65h5.9l16.72,21.67c1.03,1.33,2.62,2.11,4.3,2.11h5.42v23.46H15.82V133.77z M140.88,158.94H94.07
		h-2.44v-57.78h18.97l34.31,39.25L140.88,158.94z"/>
	<path fill="#343434" d="M109.38,107.4H98.52v33.92c0,3,2.43,5.43,5.43,5.43h32.26v-10.86h-26.83L109.38,107.4L109.38,107.4z"/>
	<path fill="#343434" d="M65.6,97.31l46.97-33.89c2.8,4.14,7.54,6.87,12.91,6.87c8.59,0,15.57-6.98,15.57-15.57
		c0-8.58-6.98-15.57-15.57-15.57c-7.56,0-13.88,5.42-15.28,12.58L59.24,88.5L65.6,97.31z M125.48,50.02c2.6,0,4.71,2.11,4.71,4.71
		s-2.11,4.71-4.71,4.71s-4.71-2.11-4.71-4.71C120.77,52.14,122.88,50.02,125.48,50.02z"/>
	<path fill="#343434" d="M186.26,54.04v117.3l-3.3,8.85l-4.27-8.74V10.86h13V0h-38.18v10.86h14.32v37.75h-19.85v10.86h19.85V172.7
		c0,0.83,0.19,1.64,0.55,2.39l10.38,21.23c0.91,1.87,2.81,3.05,4.88,3.05c0.09,0,0.18,0,0.27-0.01c2.17-0.11,4.07-1.49,4.82-3.53
		l8.05-21.62c0.23-0.61,0.34-1.25,0.34-1.9V54.04H186.26z"/>
</g>
</svg>
