<?xml version="1.0" encoding="utf-8"?>
<!-- Generator: Adobe Illustrator 23.1.0, SVG Export Plug-In . SVG Version: 6.00 Build 0)  -->
<svg version="1.1" id="Layer_1" xmlns="http://www.w3.org/2000/svg" xmlns:xlink="http://www.w3.org/1999/xlink" x="0px" y="0px"
	 viewBox="0 0 213.62 180.92" enable-background="new 0 0 213.62 180.92" xml:space="preserve">
<path fill="#343434" d="M201.14,84.47c-0.69-0.53-1.4-1.04-2.15-1.52l-8.68-5.65V60.94l-45.08-56.2c-2.08-2.59-5.41-4.29-9.15-4.66
	c-4-0.4-7.89,0.72-10.71,3.08L32.41,81.67H20.64c-2.8,0-5.07,2.27-5.07,5.07v57.18c0,2.8,2.27,5.07,5.07,5.07h6.9
	c-1.85,3.04-2.95,6.56-3.05,10.35H15.9l-7.55-10.97L0,154.11l10.57,15.36h16.22c3.49,6.79,10.56,11.45,18.7,11.45
	c8.15,0,15.21-4.66,18.7-11.45h32.39c3.49,6.79,10.56,11.45,18.7,11.45c11.6,0,21.03-9.44,21.03-21.03c0-3.99-1.14-7.72-3.08-10.9
	h11.09c2.8,0,5.07-2.27,5.07-5.07V118.5c0-27.24-22.16-49.4-49.4-49.4h-17.5c-2.8,0-5.07,2.27-5.07,5.07v7.51h-29.3l83.77-70.75
	c0.69-0.58,1.95-0.88,3.19-0.75c1.14,0.11,1.95,0.54,2.25,0.92l42.85,53.42v5.21l-38.08-36.6l0.03-0.03l-7.24-7.09l-29.2,29.82
	l7.24,7.09L135,40.38l39.77,38.22c-0.16,0.53-0.27,1.09-0.31,1.66c-0.71,11.18-3.22,39.59-4.54,48.95
	c-0.46,3.26,0.73,6.46,3.19,8.55c1.67,1.43,3.76,2.18,5.9,2.18c0.91,0,1.82-0.13,2.72-0.41l8.51-2.6
	c13.07-3.99,22.21-15.92,22.24-29.01C212.52,98.61,208.38,90.06,201.14,84.47z M45.51,170.78c-6.01,0-10.9-4.89-10.9-10.9
	c0-6.01,4.89-10.9,10.9-10.9c6.01,0,10.9,4.89,10.9,10.9C56.41,165.89,51.52,170.78,45.51,170.78z M82.5,148.98L82.5,148.98
	L82.5,148.98h14.85c-1.85,3.04-2.95,6.56-3.05,10.35H66.52c-0.1-3.78-1.2-7.31-3.05-10.35H82.5z M126.2,159.88
	c0,6.01-4.89,10.9-10.9,10.9s-10.9-4.89-10.9-10.9c0-6.01,4.89-10.9,10.9-10.9S126.2,153.87,126.2,159.88z M138.86,113.11H105.4
	V79.63C122.74,82.03,136.47,95.77,138.86,113.11z M87.57,79.22h7.69v38.96c0,2.8,2.27,5.07,5.07,5.07h38.95v15.6h-51.7V79.22H87.57z
	 M77.43,138.85h-51.7v-21.12h32.01V107.6H25.73V91.81h51.71L77.43,138.85z M187.29,127.23l-7.16,2.19
	c1.29-9.8,3.24-31.85,4.14-43.96l9.19,5.98c0.51,0.33,1,0.68,1.47,1.05c4.8,3.71,7.44,9.18,7.42,15.4
	C202.35,116.57,196.15,124.52,187.29,127.23z"/>
</svg>
