<?xml version="1.0" encoding="utf-8"?>	
<!-- Generator: Adobe Illustrator 23.1.0, SVG Export Plug-In . SVG Version: 6.00 Build 0)  -->	
<svg version="1.1" id="Layer_1" xmlns="http://www.w3.org/2000/svg" xmlns:xlink="http://www.w3.org/1999/xlink" x="0px" y="0px"	
	 viewBox="0 0 569.9 359.5" style="enable-background:new 0 0 569.9 359.5;" xml:space="preserve">	
<style type="text/css">	
	.st0{fill-rule:evenodd;clip-rule:evenodd;fill:#B8C2D6;}	
	.st1{fill-rule:evenodd;clip-rule:evenodd;}	
	.st2{fill-rule:evenodd;clip-rule:evenodd;fill:#ED7506;}	
	.st3{fill-rule:evenodd;clip-rule:evenodd;fill:#161C26;}	
	.st4{fill-rule:evenodd;clip-rule:evenodd;fill:#FEB100;}	
	.st5{fill-rule:evenodd;clip-rule:evenodd;fill:#DFE3EB;}	
	.st6{fill-rule:evenodd;clip-rule:evenodd;fill:#2D374D;}	
	.st7{fill-rule:evenodd;clip-rule:evenodd;fill:#DC3300;}	
</style>	
<g>	
	<polygon class="st0" points="63.2,0 296.1,68.7 294.6,74.6 63.2,6 	"/>	
	<polygon class="st1" points="135.7,18.2 296.9,65.7 293.9,77.6 132.5,30.2 	"/>	
	<polygon class="st2" points="38.9,32.9 296.9,65.7 330.5,133.5 293.5,180.3 271.8,106 38.9,60.1 	"/>	
	<path class="st3" d="M425.9,89.5h8.6c1.3,0,2.4,1.1,2.4,2.4v19.3l0,0h-13.5h0V91.9C423.5,90.6,424.5,89.5,425.9,89.5z"/>	
	<path class="st2" d="M436.9,91.9v6.9h-13.5v-6.9c0-1.3,1.1-2.4,2.4-2.4h8.6C435.8,89.5,436.9,90.6,436.9,91.9z"/>	
	<path class="st4" d="M311.1,108.1H441c7.8,0,13.7,6.4,14.3,14.3l3.5,50.3h87.6c7.8,0,13.1,6.4,14.1,14.1l9.3,69.5	
		c1,7.7-6.4,14.1-14.1,14.1c-84.6,0-169.2,0-253.8,0c-7.8,0-14.8-6.4-14.3-14.3l9.3-133.8C297.4,114.6,303.3,108.1,311.1,108.1z"/>	
	<path class="st1" d="M311.1,108.1H441c7.8,0,13.7,6.4,14.3,14.3l3.5,50.3l-169.5,59l7.6-109.3C297.4,114.6,303.3,108.1,311.1,108.1	
		z"/>	
	<path class="st3" d="M315.2,126.7l-5.4,78.1l57.1-19.9v-58.2H315.2L315.2,126.7z M439.3,159.8l-2.4-33h-51.4v51.7L439.3,159.8z"/>	
	<path class="st5" d="M317.5,129.2l-5,72l51.9-18.1v-54H317.5L317.5,129.2z M436.6,158l-2.1-28.8H388V175L436.6,158z"/>	
	<polygon class="st1" points="314.7,262 436.8,262 430.6,286.1 320.9,286.1 	"/>	
	<path class="st6" d="M248.6,285.2h284.2c20.4,0,37.1,16.7,37.1,37.1v0c0,20.4-16.7,37.1-37.1,37.1H248.6	
		c-20.4,0-37.1-16.7-37.1-37.1v0C211.4,301.9,228.2,285.2,248.6,285.2z"/>	
	<path class="st1" d="M246.8,291.4h287.7c16.1,0,29.2,13.1,29.2,29.2v3.5c0,16.1-13.1,29.2-29.2,29.2H246.8	
		c-16.1,0-29.2-13.1-29.2-29.2v-3.5C217.6,304.6,230.8,291.4,246.8,291.4z"/>	
	<rect x="236.2" y="302.2" class="st3" width="262.3" height="40.3"/>	
	<path class="st3" d="M531.1,342.5c11.1,0,20.2-9.1,20.2-20.2c0-11.1-9.1-20.2-20.2-20.2c-11.1,0-20.2,9.1-20.2,20.2	
		C511,333.5,520,342.5,531.1,342.5z"/>	
	<polygon class="st3" points="429.3,190.8 441,186.7 441.3,191 429.6,195.1 	"/>	
	<path class="st3" d="M461.7,199.2l-1-13.8h2.5l1,13.8H461.7L461.7,199.2z M528.1,225l-1-13.8h2.5l1,13.8H528.1L528.1,225z	
		 M517.3,225l-1-13.8h2.5l1,13.8H517.3L517.3,225z M506.6,225l-1-13.8h2.5l1,13.8H506.6L506.6,225z M495.8,225l-1-13.8h2.5l1,13.8	
		H495.8L495.8,225z M485,225l-1-13.8h2.5l1,13.8H485L485,225z M474.3,225l-1-13.8h2.5l1,13.8H474.3L474.3,225z M463.5,225l-1-13.8	
		h2.5l1,13.8H463.5L463.5,225z M526.3,199.2l-1-13.8h2.5l1,13.8H526.3L526.3,199.2z M515.5,199.2l-1-13.8h2.5l1,13.8H515.5	
		L515.5,199.2z M504.8,199.2l-1-13.8h2.5l1,13.8H504.8L504.8,199.2z M494,199.2l-1-13.8h2.5l1,13.8H494L494,199.2z M483.2,199.2	
		l-1-13.8h2.5l1,13.8H483.2L483.2,199.2z M472.5,199.2l-1-13.8h2.5l1,13.8H472.5z"/>	
	<path class="st3" d="M283.3,94.8c4.9,0,8.9-4,8.9-8.9c0-4.9-4-8.9-8.9-8.9c-4.9,0-8.9,4-8.9,8.9C274.5,90.8,278.4,94.8,283.3,94.8z	
		"/>	
	<rect x="17.8" y="32.3" class="st0" width="6.2" height="266.8"/>	
	<rect x="14.7" y="32.3" class="st1" width="12.4" height="168.2"/>	
	<polygon class="st4" points="63.2,0 63.2,272.9 42.2,272.9 14.8,32.3 29.1,6.2 	"/>	
	<polygon class="st1" points="63.2,258.8 0,301.4 0,339 39.6,359.5 125.7,359.5 79,332.7 	"/>	
	<path class="st3" d="M40.7,62.3c6.7,0,12.2-5.5,12.2-12.2c0-6.7-5.5-12.2-12.2-12.2S28.5,43.3,28.5,50C28.5,56.8,34,62.3,40.7,62.3	
		z"/>	
	<path class="st3" d="M51.7,258.8c3.3,0,6-2.7,6-6c0-3.3-2.7-6-6-6c-3.3,0-6,2.7-6,6C45.7,256.1,48.3,258.8,51.7,258.8z"/>	
	<path class="st2" d="M288.6,241.7h279.3l2,14.6c1,7.7-6.4,14.1-14.1,14.1c-84.6,0-169.2,0-253.8,0c-7.8,0-14.8-6.4-14.3-14.3	
		L288.6,241.7z"/>	
	<path class="st3" d="M287.6,256.1h255.2v14.3H301.8C294,270.4,287,264,287.6,256.1L287.6,256.1z"/>	
	<polygon class="st3" points="542.2,270.4 535.4,172.6 537.8,172.6 544.7,270.4 	"/>	
	<path class="st3" d="M455.2,270.4l-10.7-151.7h-67.2v151.7h-2.5V118.7h-66.9l-10.6,151c-0.8-0.3-1.6-0.6-2.4-1	
		c3.6-50.7,6.7-101.8,10.8-152.5h141.2c3.7,51.4,7.3,102.8,10.9,154.2H455.2z"/>	
	<path class="st2" d="M537.8,172.6h8.5c7.8,0,13.1,6.4,14.1,14.1l9.3,69.5c1,7.7-6.4,14.1-14.1,14.1h-10.9L537.8,172.6z"/>	
	<polygon class="st7" points="557.2,253.7 569.5,253.7 568.2,243.9 556.5,243.9 	"/>	
	<rect x="236.2" y="302.2" class="st6" width="262.3" height="20.2"/>	
	<path class="st6" d="M551.3,322.4H511c0-11.1,9-20.2,20.2-20.2S551.3,311.2,551.3,322.4z"/>	
</g>	
</svg>