<?xml version="1.0" encoding="utf-8"?>
<!-- Generator: Adobe Illustrator 23.1.0, SVG Export Plug-In . SVG Version: 6.00 Build 0)  -->
<svg version="1.1" id="Layer_1" xmlns="http://www.w3.org/2000/svg" xmlns:xlink="http://www.w3.org/1999/xlink" x="0px" y="0px"
	 viewBox="0 0 199 64" style="enable-background:new 0 0 199 64;" xml:space="preserve">
<style type="text/css">
	.st0{fill-rule:evenodd;clip-rule:evenodd;fill:#1C1C1C;}
	.st1{fill:#FF6600;}
	.st2{fill:none;stroke:#FFFFFF;stroke-width:1.5216;stroke-miterlimit:10;}
	.st3{fill:none;stroke:#FFFFFF;stroke-width:10.3844;stroke-miterlimit:10;}
	.st4{fill:#FFFFFF;}
</style>
<g>
	<path class="st0" d="M629.3-122.9h-1.8"/>
	<path class="st0" d="M583.3-129.6l-0.6,3.1l-3.6,20.4h74.6l-4.9-20.8c-0.4-1.5-1.5-2.8-3.1-2.8C625-129.6,603.9-129.6,583.3-129.6z
		"/>
	<path class="st0" d="M621.1-122.3h-11.2c-3.2-2.6-7.2-4.1-11.6-4.1c-5.2,0-10.4,0-15.6,0l4.8-23.6h28L621.1-122.3z"/>
	<path class="st0" d="M613.7-147.9H601v19.6c3.5,0.5,6.8,1.8,9.6,3.9h7.9L613.7-147.9L613.7-147.9z M598.9-147.9h-9.7l-3.9,19.4
		c4.3,0,8.7,0,13,0c0.2,0,0.4,0,0.6,0V-147.9z"/>
	<path class="st0" d="M613.2-147.2h-11.5v18.2c3.3,0.5,6.4,1.8,9.2,3.8h6.8L613.2-147.2L613.2-147.2z M598.2-147.2h-8.4l-3.7,18
		c4,0,8,0,12.1,0V-147.2z"/>
	<path class="st0" d="M616.2-150.6v-0.9c0-0.3-0.3-0.6-0.6-0.6h-28.3c-0.3,0-0.6,0.3-0.6,0.6v0.9c0,0.3,0.3,0.6,0.6,0.6h28.3
		C616-150,616.2-150.3,616.2-150.6z"/>
	<path class="st0" d="M601-152.1L601-152.1h-2.1l0,0"/>
	<rect x="601.7" y="-139.3" class="st0" width="1.6" height="2.4"/>
	<rect x="601.7" y="-138.9" class="st0" width="0.8" height="1.7"/>
	<path class="st0" d="M568.4-114.8h1v-2.5h-1v-2.9h1v-4.6h11.2c0,4.5,0,14.3,0,18.8h-11.2v-5.8h-1V-114.8z"/>
	<polygon class="st0" points="548.1,-149.5 539.7,-122.2 540.6,-121.8 549,-149.2 	"/>
	<polygon class="st0" points="547.6,-149.6 543,-134.5 544.8,-133.9 549.4,-149 	"/>
	<polygon class="st0" points="554.1,-166.8 551.3,-163.1 548.9,-152.2 546.4,-149.6 547.5,-145.9 540.8,-124.4 547.4,-125.1 
		565.6,-167.7 	"/>
	<polygon class="st0" points="554.6,-160 563.8,-114.7 569.5,-109.3 569.5,-122.7 575.1,-129.6 557.7,-161.4 	"/>
	<path class="st0" d="M555.8-159c-0.2,0.6,0.1,1.3,0.8,1.6c0.6,0.2,1.3-0.1,1.6-0.8c0.2-0.6-0.1-1.3-0.8-1.6
		C556.7-160,556-159.7,555.8-159z"/>
	<path class="st0" d="M571.5-129.9c-0.2,0.5,0.1,1,0.5,1.1c0.5,0.2,1-0.1,1.1-0.5c0.2-0.5-0.1-1-0.5-1.1
		C572.1-130.6,571.6-130.4,571.5-129.9z"/>
	<path class="st0" d="M561.1-165.1c-0.2,0.5,0.1,1,0.5,1.1c0.5,0.2,1-0.1,1.1-0.5c0.2-0.5-0.1-1-0.5-1.1
		C561.8-165.9,561.2-165.6,561.1-165.1z"/>
	<path class="st0" d="M547.6-149.5c-0.2,0.5,0.1,1,0.5,1.1c0.5,0.2,1-0.1,1.1-0.5c0.2-0.5-0.1-1-0.5-1.1
		C548.3-150.2,547.8-150,547.6-149.5z"/>
	<polygon class="st0" points="625.1,-124.2 639,-119.9 637.7,-119 625.3,-123.1 	"/>
	<polygon class="st0" points="636.4,-129.6 622.8,-129.6 623.7,-125.4 637.1,-123.7 	"/>
	<polygon class="st0" points="626.1,-122.9 624.1,-123.1 622.8,-129.6 624.7,-129.6 	"/>
	<path class="st0" d="M623.4-128.9c-0.1,0.3,0,0.6,0.3,0.7c0.3,0.1,0.6,0,0.7-0.3c0.1-0.3,0-0.6-0.3-0.7
		C623.8-129.3,623.5-129.2,623.4-128.9z"/>
	<path class="st0" d="M624.6-123.9c-0.1,0.2,0,0.4,0.2,0.5s0.4,0,0.5-0.2c0.1-0.2,0-0.4-0.2-0.5
		C624.9-124.2,624.7-124.1,624.6-123.9z"/>
	<polygon class="st0" points="581.3,-114.3 580.7,-106 652.1,-106 650.9,-114.3 	"/>
	<path class="st0" d="M615-107.9c0,0.6,0,1.3-0.1,1.9h-33.6l0,0c0-0.6,0-1.3,0-1.9c0-9.3,7.6-16.9,16.9-16.9S615-117.2,615-107.9z"
		/>
	<rect x="579.3" y="-124.8" class="st0" width="18.8" height="11.1"/>
	<path class="st0" d="M613.6-107.9c0,0.6,0,1.3-0.1,1.9h-30.8c0-0.6,0-1.3,0-1.9c0-8.6,6.9-15.5,15.5-15.5
		C606.7-123.4,613.6-116.5,613.6-107.9z"/>
	<ellipse class="st0" cx="598.2" cy="-107.9" rx="14.1" ry="14.1"/>
	<ellipse class="st0" cx="598.2" cy="-107.9" rx="7.7" ry="7.7"/>
	<ellipse class="st0" cx="598.2" cy="-107.9" rx="3.5" ry="3.5"/>
	<path class="st0" d="M602.2-107.9c0-0.3,0.3-0.6,0.6-0.6s0.6,0.3,0.6,0.6c0,0.4-0.3,0.6-0.6,0.6S602.2-107.6,602.2-107.9
		L602.2-107.9z M598.2-103.8c0.3,0,0.6,0.3,0.6,0.6c0,0.4-0.3,0.6-0.6,0.6c-0.4,0-0.6-0.3-0.6-0.6
		C597.5-103.6,597.8-103.8,598.2-103.8L598.2-103.8z M595.5-103.3c-0.3-0.2-0.4-0.6-0.2-0.9c0.2-0.3,0.6-0.4,0.9-0.2
		c0.3,0.2,0.4,0.6,0.2,0.9C596.2-103.2,595.8-103.1,595.5-103.3L595.5-103.3z M593.5-105.3c-0.2-0.3-0.1-0.7,0.2-0.9
		c0.3-0.2,0.7-0.1,0.9,0.2c0.2,0.3,0.1,0.7-0.2,0.9C594.1-104.9,593.7-105,593.5-105.3L593.5-105.3z M593.5-110.6
		c0.2-0.3,0.6-0.4,0.9-0.2c0.3,0.2,0.4,0.6,0.2,0.9c-0.2,0.3-0.6,0.4-0.9,0.2C593.5-109.9,593.4-110.3,593.5-110.6L593.5-110.6z
		 M595.5-112.5c0.3-0.2,0.7-0.1,0.9,0.2c0.2,0.3,0.1,0.7-0.2,0.9c-0.3,0.2-0.7,0.1-0.9-0.2C595.1-112,595.2-112.4,595.5-112.5
		L595.5-112.5z M592.8-107.9c0-0.3,0.3-0.6,0.6-0.6c0.4,0,0.6,0.3,0.6,0.6c0,0.4-0.3,0.6-0.6,0.6
		C593.1-107.3,592.8-107.6,592.8-107.9L592.8-107.9z M598.2-113.3c0.3,0,0.6,0.3,0.6,0.6c0,0.4-0.3,0.6-0.6,0.6
		c-0.4,0-0.6-0.3-0.6-0.6C597.5-113,597.8-113.3,598.2-113.3L598.2-113.3z M600.2-111.5c-0.3-0.2-0.4-0.6-0.2-0.9
		c0.2-0.3,0.6-0.4,0.9-0.2c0.3,0.2,0.4,0.6,0.2,0.9C600.9-111.4,600.5-111.3,600.2-111.5L600.2-111.5z M601.7-110
		c-0.2-0.3-0.1-0.7,0.2-0.9c0.3-0.2,0.7-0.1,0.9,0.2c0.2,0.3,0.1,0.7-0.2,0.9C602.3-109.6,601.9-109.7,601.7-110L601.7-110z
		 M601.7-105.9c0.2-0.3,0.6-0.4,0.9-0.2c0.3,0.2,0.4,0.6,0.2,0.9c-0.2,0.3-0.6,0.4-0.9,0.2C601.6-105.2,601.5-105.6,601.7-105.9
		L601.7-105.9z M601.1-104.2c0.2,0.3,0.1,0.7-0.2,0.9c-0.3,0.2-0.7,0.1-0.9-0.2c-0.2-0.3-0.1-0.7,0.2-0.9
		C600.5-104.6,600.9-104.5,601.1-104.2z"/>
	<polygon class="st0" points="547.6,-114.7 539,-116.5 538.9,-118.7 547.6,-116.8 	"/>
	<polygon class="st0" points="538.6,-122.8 543,-126 547.4,-125.1 541.4,-121.4 541.9,-115.9 539,-116.5 	"/>
	<polygon class="st0" points="554.3,-125.1 558.7,-131.9 558.2,-118.6 554.9,-112.7 546,-113.1 540.8,-117.6 539.5,-120.9 	"/>
	<path class="st0" d="M544.2-125.9c-0.2,0.5,0.1,1,0.5,1.1c0.5,0.2,1-0.1,1.1-0.5c0.2-0.5-0.1-1-0.5-1.1
		C544.8-126.6,544.3-126.4,544.2-125.9z"/>
	<path class="st0" d="M539.5-122.4c-0.1,0.4,0.1,0.8,0.4,0.9s0.8-0.1,0.9-0.4c0.1-0.4-0.1-0.8-0.4-0.9S539.6-122.7,539.5-122.4z"/>
	<path class="st0" d="M539.8-117.6c-0.1,0.3,0.1,0.6,0.3,0.7c0.3,0.1,0.6-0.1,0.7-0.3c0.1-0.3-0.1-0.6-0.3-0.7
		C540.2-118,539.9-117.9,539.8-117.6z"/>
	<path class="st0" d="M661.8-97.9l5.6-7.3l-21-19.4l-6.7,6.9"/>
	<polygon class="st0" points="665,-120 670.3,-118.9 676.2,-100.7 688,-98.4 675.4,-95.9 661.8,-97.9 660.5,-117 	"/>
	<path class="st0" d="M666.8-115.3c0-0.8-0.6-1.4-1.4-1.4c-0.8,0-1.4,0.6-1.4,1.4s0.6,1.4,1.4,1.4
		C666.1-113.9,666.8-114.5,666.8-115.3z"/>
	<path class="st0" d="M638.4-120.6c-0.1,0.3,0,0.7,0.4,0.9c0.3,0.1,0.7,0,0.9-0.4c0.1-0.3,0-0.7-0.4-0.9
		C638.9-121.2,638.5-121,638.4-120.6z"/>
	<path class="st0" d="M650.7-107L650.7-107c0,0.4,0.1,0.7,0.1,1h-25.3c0.5-6.6,5.9-11.7,12.6-11.7
		C644.5-117.8,649.7-113.1,650.7-107z"/>
	<ellipse class="st0" cx="638.1" cy="-105.1" rx="11.2" ry="11.2"/>
	<path class="st0" d="M643.8-105.1c0-3.1-2.5-5.6-5.6-5.6c-3.1,0-5.6,2.5-5.6,5.6c0,3.1,2.5,5.6,5.6,5.6
		C641.2-99.5,643.8-102,643.8-105.1z"/>
	<path class="st0" d="M640.7-105.1c0-1.4-1.1-2.5-2.5-2.5s-2.5,1.1-2.5,2.5c0,1.4,1.1,2.5,2.5,2.5S640.7-103.7,640.7-105.1z"/>
	<path class="st0" d="M641.1-105.1c0-0.2,0.2-0.5,0.5-0.5c0.3,0,0.5,0.2,0.5,0.5c0,0.3-0.2,0.5-0.5,0.5
		C641.3-104.7,641.1-104.9,641.1-105.1L641.1-105.1z M638.1-102.1c0.3,0,0.5,0.2,0.5,0.5s-0.2,0.5-0.5,0.5c-0.3,0-0.5-0.2-0.5-0.5
		S637.9-102.1,638.1-102.1L638.1-102.1z M636.2-101.7c-0.2-0.1-0.3-0.4-0.2-0.6c0.1-0.2,0.4-0.3,0.6-0.2c0.2,0.1,0.3,0.4,0.2,0.6
		C636.7-101.7,636.4-101.6,636.2-101.7L636.2-101.7z M634.8-103.2c-0.1-0.2,0-0.5,0.2-0.6c0.2-0.1,0.5-0.1,0.6,0.2
		c0.1,0.2,0.1,0.5-0.2,0.6C635.2-102.9,634.9-102.9,634.8-103.2L634.8-103.2z M634.8-107c0.1-0.2,0.4-0.3,0.6-0.2
		c0.2,0.1,0.3,0.4,0.2,0.6c-0.1,0.2-0.4,0.3-0.6,0.2C634.7-106.5,634.6-106.8,634.8-107L634.8-107z M636.2-108.5
		c0.2-0.1,0.5-0.1,0.6,0.2c0.1,0.2,0.1,0.5-0.2,0.6c-0.2,0.1-0.5,0.1-0.6-0.2C635.9-108.1,636-108.3,636.2-108.5L636.2-108.5z
		 M634.2-105.1c0-0.2,0.2-0.5,0.5-0.5c0.3,0,0.5,0.2,0.5,0.5c0,0.3-0.2,0.5-0.5,0.5C634.4-104.7,634.2-104.9,634.2-105.1
		L634.2-105.1z M638.1-109c0.3,0,0.5,0.2,0.5,0.5c0,0.3-0.2,0.5-0.5,0.5c-0.3,0-0.5-0.2-0.5-0.5C637.7-108.8,637.9-109,638.1-109
		L638.1-109z M639.6-107.7c-0.2-0.1-0.3-0.4-0.2-0.6c0.1-0.2,0.4-0.3,0.6-0.2c0.2,0.1,0.3,0.4,0.2,0.6
		C640.1-107.6,639.8-107.6,639.6-107.7L639.6-107.7z M640.7-106.6c-0.1-0.2-0.1-0.5,0.2-0.6c0.2-0.1,0.5-0.1,0.6,0.2
		c0.1,0.2,0.1,0.5-0.2,0.6C641.1-106.3,640.8-106.4,640.7-106.6L640.7-106.6z M640.7-103.6c0.1-0.2,0.4-0.3,0.6-0.2
		c0.2,0.1,0.3,0.4,0.2,0.6c-0.1,0.2-0.4,0.3-0.6,0.2C640.6-103.1,640.6-103.4,640.7-103.6L640.7-103.6z M640.2-102.4
		c0.1,0.2,0.1,0.5-0.2,0.6c-0.2,0.1-0.5,0.1-0.6-0.2c-0.1-0.2-0.1-0.5,0.2-0.6C639.8-102.7,640.1-102.6,640.2-102.4z"/>
</g>
<g>
	<g>
		<path class="st1" d="M180.8,56.5c0,0-60.9,1.8-81.1,1.8s-81.1-1.8-81.1-1.8c-6.9,0-12.6-3.5-12.6-7.9V15.8c0-4.3,5.7-7.9,12.6-7.9
			c0,0,60.9-2.6,81.1-2.6s81.1,2.6,81.1,2.6c6.9,0,12.6,3.5,12.6,7.9v32.8C193.4,52.9,187.7,56.5,180.8,56.5z"/>
		<path class="st2" d="M180.8,56.5c0,0-60.9,1.8-81.1,1.8s-81.1-1.8-81.1-1.8c-6.9,0-12.6-3.5-12.6-7.9V15.8c0-4.3,5.7-7.9,12.6-7.9
			c0,0,60.9-2.6,81.1-2.6s81.1,2.6,81.1,2.6c6.9,0,12.6,3.5,12.6,7.9v32.8C193.4,52.9,187.7,56.5,180.8,56.5z"/>
		<path class="st3" d="M180.8,56.5c0,0-60.9,1.8-81.1,1.8s-81.1-1.8-81.1-1.8c-6.9,0-12.6-3.5-12.6-7.9V15.8c0-4.3,5.7-7.9,12.6-7.9
			c0,0,60.9-2.6,81.1-2.6s81.1,2.6,81.1,2.6c6.9,0,12.6,3.5,12.6,7.9v32.8C193.4,52.9,187.7,56.5,180.8,56.5z"/>
	</g>
	<g>
		<path class="st0" d="M46.5,32.7h-0.6"/>
		<path class="st0" d="M32.1,30.6l-0.2,1l-1.1,6.4H54l-1.5-6.5c-0.1-0.5-0.5-0.9-1-0.9C45.1,30.6,38.6,30.6,32.1,30.6z"/>
		<path class="st0" d="M43.9,32.8h-3.5c-1-0.8-2.2-1.3-3.6-1.3c-1.6,0-3.2,0-4.8,0l1.5-7.3h8.7L43.9,32.8z"/>
		<path class="st0" d="M41.6,24.9h-4V31c1.1,0.1,2.1,0.6,3,1.2h2.4L41.6,24.9L41.6,24.9z M37,24.9h-3l-1.2,6c1.3,0,2.7,0,4,0
			c0.1,0,0.1,0,0.2,0V24.9z"/>
		<path class="st0" d="M41.4,25.1l-3.6,0v5.7c1,0.2,2,0.6,2.8,1.2h2.1L41.4,25.1L41.4,25.1z M36.8,25.1h-2.6L33,30.7
			c1.3,0,2.5,0,3.8,0V25.1z"/>
		<path class="st0" d="M42.4,24v-0.3c0-0.1-0.1-0.2-0.2-0.2h-8.8c-0.1,0-0.2,0.1-0.2,0.2V24c0,0.1,0.1,0.2,0.2,0.2h8.8
			C42.3,24.2,42.4,24.1,42.4,24z"/>
		<path class="st0" d="M37.6,23.6L37.6,23.6H37l0,0"/>
		<rect x="37.9" y="27.5" class="st0" width="0.5" height="0.8"/>
		<rect x="37.9" y="27.7" class="st0" width="0.2" height="0.5"/>
		<path class="st0" d="M27.5,35.2h0.3v-0.8h-0.3v-0.9h0.3v-1.4h3.5c0,1.4,0,4.5,0,5.8h-3.5v-1.8h-0.3V35.2z"/>
		<polygon class="st0" points="21.2,24.4 18.6,32.9 18.8,33 21.5,24.5 		"/>
		<polygon class="st0" points="21,24.3 19.6,29 20.1,29.2 21.6,24.5 		"/>
		<polygon class="st0" points="23,19 22.2,20.1 21.4,23.5 20.6,24.3 21,25.5 18.9,32.2 21,32 26.6,18.7 		"/>
		<polygon class="st0" points="23.2,21.1 26.1,35.2 27.8,36.9 27.8,32.7 29.6,30.6 24.2,20.7 		"/>
		<path class="st0" d="M23.6,21.4c-0.1,0.2,0,0.4,0.2,0.5c0.2,0.1,0.4,0,0.5-0.2c0.1-0.2,0-0.4-0.2-0.5
			C23.8,21.1,23.6,21.2,23.6,21.4z"/>
		<path class="st0" d="M28.4,30.5c-0.1,0.1,0,0.3,0.2,0.4c0.1,0.1,0.3,0,0.4-0.2c0.1-0.1,0-0.3-0.2-0.4
			C28.7,30.2,28.5,30.3,28.4,30.5z"/>
		<path class="st0" d="M25.2,19.5c-0.1,0.1,0,0.3,0.2,0.4c0.1,0.1,0.3,0,0.4-0.2c0.1-0.1,0-0.3-0.2-0.4
			C25.4,19.3,25.3,19.4,25.2,19.5z"/>
		<path class="st0" d="M21,24.4c-0.1,0.1,0,0.3,0.2,0.4c0.1,0.1,0.3,0,0.4-0.2c0.1-0.1,0-0.3-0.2-0.4C21.2,24.1,21.1,24.2,21,24.4z"
			/>
		<polygon class="st0" points="45.2,32.2 49.5,33.6 49.1,33.9 45.2,32.6 		"/>
		<polygon class="st0" points="48.7,30.6 44.4,30.6 44.7,31.9 48.9,32.4 		"/>
		<polygon class="st0" points="45.5,32.7 44.8,32.6 44.4,30.6 45,30.6 		"/>
		<path class="st0" d="M44.6,30.8c0,0.1,0,0.2,0.1,0.2c0.1,0,0.2,0,0.2-0.1c0-0.1,0-0.2-0.1-0.2S44.7,30.7,44.6,30.8z"/>
		<path class="st0" d="M45,32.4c0,0.1,0,0.1,0.1,0.1c0.1,0,0.1,0,0.1-0.1c0-0.1,0-0.1-0.1-0.1C45.1,32.3,45,32.3,45,32.4z"/>
		<polygon class="st0" points="31.5,35.3 31.3,37.9 53.6,37.9 53.2,35.3 		"/>
		<path class="st0" d="M42,37.3c0,0.2,0,0.4,0,0.6H31.5l0,0c0-0.2,0-0.4,0-0.6c0-2.9,2.4-5.3,5.3-5.3S42,34.4,42,37.3z"/>
		<rect x="30.9" y="32.1" class="st0" width="5.9" height="3.4"/>
		<path class="st0" d="M41.6,37.3c0,0.2,0,0.4,0,0.6h-9.6c0-0.2,0-0.4,0-0.6c0-2.7,2.2-4.8,4.8-4.8C39.4,32.5,41.6,34.7,41.6,37.3z"
			/>
		<ellipse class="st0" cx="36.8" cy="37.3" rx="4.4" ry="4.4"/>
		<ellipse class="st0" cx="36.8" cy="37.3" rx="2.4" ry="2.4"/>
		<ellipse class="st0" cx="36.8" cy="37.3" rx="1.1" ry="1.1"/>
		<path class="st0" d="M38,37.3c0-0.1,0.1-0.2,0.2-0.2c0.1,0,0.2,0.1,0.2,0.2c0,0.1-0.1,0.2-0.2,0.2C38.1,37.5,38,37.4,38,37.3
			L38,37.3z M36.8,38.6c0.1,0,0.2,0.1,0.2,0.2c0,0.1-0.1,0.2-0.2,0.2c-0.1,0-0.2-0.1-0.2-0.2C36.6,38.7,36.7,38.6,36.8,38.6
			L36.8,38.6z M35.9,38.8c-0.1-0.1-0.1-0.2-0.1-0.3c0.1-0.1,0.2-0.1,0.3-0.1c0.1,0.1,0.1,0.2,0.1,0.3C36.1,38.8,36,38.8,35.9,38.8
			L35.9,38.8z M35.3,38.2c-0.1-0.1,0-0.2,0.1-0.3c0.1,0,0.2,0,0.3,0.1c0,0.1,0,0.2-0.1,0.3C35.5,38.3,35.4,38.2,35.3,38.2L35.3,38.2
			z M35.3,36.5c0.1-0.1,0.2-0.1,0.3-0.1c0.1,0.1,0.1,0.2,0.1,0.3c-0.1,0.1-0.2,0.1-0.3,0.1C35.3,36.7,35.3,36.6,35.3,36.5L35.3,36.5
			z M35.9,35.9c0.1-0.1,0.2,0,0.3,0.1c0,0.1,0,0.2-0.1,0.3c-0.1,0-0.2,0-0.3-0.1C35.8,36.1,35.8,35.9,35.9,35.9L35.9,35.9z
			 M35.1,37.3c0-0.1,0.1-0.2,0.2-0.2c0.1,0,0.2,0.1,0.2,0.2c0,0.1-0.1,0.2-0.2,0.2C35.2,37.5,35.1,37.4,35.1,37.3L35.1,37.3z
			 M36.8,35.7c0.1,0,0.2,0.1,0.2,0.2c0,0.1-0.1,0.2-0.2,0.2c-0.1,0-0.2-0.1-0.2-0.2C36.6,35.7,36.7,35.7,36.8,35.7L36.8,35.7z
			 M37.4,36.2c-0.1,0-0.1-0.2-0.1-0.3c0.1-0.1,0.2-0.1,0.3-0.1c0.1,0.1,0.1,0.2,0.1,0.3C37.6,36.2,37.5,36.3,37.4,36.2L37.4,36.2z
			 M37.9,36.7c-0.1-0.1,0-0.2,0.1-0.3c0.1,0,0.2,0,0.3,0.1c0,0.1,0,0.2-0.1,0.3C38,36.8,37.9,36.8,37.9,36.7L37.9,36.7z M37.9,38
			c0-0.1,0.2-0.1,0.3-0.1c0.1,0.1,0.1,0.2,0.1,0.3c-0.1,0.1-0.2,0.1-0.3,0.1C37.8,38.2,37.8,38.1,37.9,38L37.9,38z M37.7,38.5
			c0,0.1,0,0.2-0.1,0.3c-0.1,0-0.2,0-0.3-0.1c0-0.1,0-0.2,0.1-0.3C37.5,38.4,37.6,38.4,37.7,38.5z"/>
		<polygon class="st0" points="21,35.2 18.3,34.6 18.3,34 21,34.6 		"/>
		<polygon class="st0" points="18.2,32.7 19.6,31.7 21,32 19.1,33.1 19.2,34.8 18.3,34.6 		"/>
		<polygon class="st0" points="23.1,32 24.5,29.9 24.3,34 23.3,35.8 20.5,35.7 18.9,34.3 18.5,33.3 		"/>
		<path class="st0" d="M19.9,31.7c-0.1,0.1,0,0.3,0.2,0.4c0.1,0.1,0.3,0,0.4-0.2c0.1-0.1,0-0.3-0.2-0.4C20.2,31.5,20,31.6,19.9,31.7
			z"/>
		<path class="st0" d="M18.5,32.8c0,0.1,0,0.2,0.1,0.3c0.1,0,0.2,0,0.3-0.1c0-0.1,0-0.2-0.1-0.3C18.7,32.6,18.5,32.7,18.5,32.8z"/>
		<path class="st0" d="M18.6,34.3c0,0.1,0,0.2,0.1,0.2c0.1,0,0.2,0,0.2-0.1c0-0.1,0-0.2-0.1-0.2C18.7,34.2,18.6,34.2,18.6,34.3z"/>
		<path class="st0" d="M56.6,40.4l1.7-2.3l-6.5-6l-2.1,2.2"/>
		<polygon class="st0" points="57.6,33.6 59.2,33.9 61,39.6 64.7,40.3 60.8,41.1 56.6,40.4 56.2,34.5 		"/>
		<path class="st0" d="M58.1,35c0-0.2-0.2-0.4-0.4-0.4s-0.4,0.2-0.4,0.4c0,0.2,0.2,0.4,0.4,0.4C57.9,35.5,58.1,35.3,58.1,35z"/>
		<path class="st0" d="M49.3,33.4c0,0.1,0,0.2,0.1,0.3c0.1,0,0.2,0,0.3-0.1c0-0.1,0-0.2-0.1-0.3C49.4,33.2,49.3,33.3,49.3,33.4z"/>
		<path class="st0" d="M53.1,37.6L53.1,37.6c0,0.1,0,0.2,0,0.3h-7.9c0.1-2,1.8-3.7,3.9-3.7C51.2,34.3,52.8,35.7,53.1,37.6z"/>
		<ellipse class="st0" cx="49.2" cy="38.2" rx="3.5" ry="3.5"/>
		<path class="st0" d="M51,38.2c0-1-0.8-1.7-1.7-1.7s-1.7,0.8-1.7,1.7s0.8,1.7,1.7,1.7S51,39.2,51,38.2z"/>
		<path class="st0" d="M50,38.2c0-0.4-0.4-0.8-0.8-0.8s-0.8,0.4-0.8,0.8s0.4,0.8,0.8,0.8S50,38.6,50,38.2z"/>
		<path class="st0" d="M50.1,38.2c0-0.1,0.1-0.1,0.1-0.1c0.1,0,0.1,0.1,0.1,0.1s-0.1,0.1-0.1,0.1C50.2,38.3,50.1,38.3,50.1,38.2
			L50.1,38.2z M49.2,39.1c0.1,0,0.1,0.1,0.1,0.1s-0.1,0.1-0.1,0.1s-0.1-0.1-0.1-0.1S49.1,39.1,49.2,39.1L49.2,39.1z M48.6,39.2
			c-0.1,0-0.1-0.1,0-0.2c0-0.1,0.1-0.1,0.2,0c0.1,0,0.1,0.1,0,0.2C48.8,39.3,48.7,39.3,48.6,39.2L48.6,39.2z M48.2,38.8
			c0-0.1,0-0.2,0-0.2c0.1,0,0.2,0,0.2,0c0,0.1,0,0.2,0,0.2C48.3,38.9,48.2,38.9,48.2,38.8L48.2,38.8z M48.2,37.6
			c0-0.1,0.1-0.1,0.2,0c0.1,0,0.1,0.1,0,0.2c0,0.1-0.1,0.1-0.2,0C48.1,37.8,48.1,37.7,48.2,37.6L48.2,37.6z M48.6,37.2
			c0.1,0,0.2,0,0.2,0c0,0.1,0,0.2,0,0.2c-0.1,0-0.2,0-0.2,0C48.5,37.3,48.5,37.2,48.6,37.2L48.6,37.2z M48,38.2
			c0-0.1,0.1-0.1,0.1-0.1s0.1,0.1,0.1,0.1s-0.1,0.1-0.1,0.1S48,38.3,48,38.2L48,38.2z M49.2,37c0.1,0,0.1,0.1,0.1,0.1
			s-0.1,0.1-0.1,0.1s-0.1-0.1-0.1-0.1S49.1,37,49.2,37L49.2,37z M49.7,37.4c-0.1,0-0.1-0.1,0-0.2c0-0.1,0.1-0.1,0.2,0
			c0.1,0,0.1,0.1,0,0.2C49.8,37.4,49.7,37.4,49.7,37.4L49.7,37.4z M50,37.7c0-0.1,0-0.2,0-0.2c0.1,0,0.2,0,0.2,0c0,0.1,0,0.2,0,0.2
			C50.1,37.8,50,37.8,50,37.7L50,37.7z M50,38.7c0-0.1,0.1-0.1,0.2,0c0.1,0,0.1,0.1,0,0.2c0,0.1-0.1,0.1-0.2,0
			C50,38.8,50,38.7,50,38.7L50,38.7z M49.9,39c0,0.1,0,0.2,0,0.2c-0.1,0-0.2,0-0.2,0c0-0.1,0-0.2,0-0.2S49.8,39,49.9,39z"/>
	</g>
	<g>
		<path class="st4" d="M83.8,24.4v14.8h-4.9V28.3h-4.5v10.9h-4.9V24.4H83.8z"/>
		<path class="st4" d="M99.6,39.2l0-6.7l-3.2,5.4h-2.2L91,32.7v6.5h-4.5V24.4h4.1l4.8,7.9l4.7-7.9h4.1l0,14.8H99.6z"/>
		<path class="st4" d="M117.1,31.6l4.4,7.6h-5.6l-2.8-5.3h-1.4v5.3h-5V24.4h5v5.5h1.5l3.1-5.5h5.2L117.1,31.6z"/>
		<path class="st4" d="M128.9,31.3h6.3v3.6h-6.3V31.3z"/>
		<path class="st4" d="M154.9,35.3v3.9h-11.8v-3.1l5.3-4.9c0.5-0.4,0.8-0.8,0.9-1.1s0.2-0.6,0.2-0.9c0-0.4-0.1-0.7-0.4-0.9
			c-0.2-0.2-0.6-0.3-1.1-0.3c-0.5,0-0.9,0.1-1.3,0.4c-0.4,0.2-0.7,0.6-0.9,1l-3.8-1.9c0.6-1.1,1.4-1.9,2.5-2.5
			c1.1-0.6,2.4-0.9,3.9-0.9c1.2,0,2.2,0.2,3.1,0.6c0.9,0.4,1.6,0.9,2.1,1.6c0.5,0.7,0.8,1.5,0.8,2.4c0,0.8-0.2,1.6-0.5,2.3
			c-0.3,0.7-1,1.5-2,2.4l-2.1,1.9H154.9z"/>
		<path class="st4" d="M166.9,31.8c0.6,0.7,0.9,1.6,0.9,2.7c0,0.9-0.2,1.7-0.7,2.5c-0.5,0.8-1.2,1.4-2.2,1.9c-1,0.5-2.3,0.7-3.8,0.7
			c-1,0-2.1-0.1-3.1-0.3s-1.9-0.6-2.7-1l1.7-3.7c0.6,0.4,1.3,0.6,2,0.8c0.7,0.2,1.4,0.3,2,0.3c0.6,0,1-0.1,1.4-0.3s0.5-0.5,0.5-0.8
			c0-0.7-0.6-1-1.8-1h-2v-3.1l2.2-2.2H156v-3.8h11v3.1l-2.7,2.8C165.4,30.5,166.3,31,166.9,31.8z"/>
		<path class="st4" d="M180.6,35.3v3.9h-11.8v-3.1l5.3-4.9c0.5-0.4,0.8-0.8,0.9-1.1s0.2-0.6,0.2-0.9c0-0.4-0.1-0.7-0.4-0.9
			c-0.2-0.2-0.6-0.3-1.1-0.3c-0.5,0-0.9,0.1-1.3,0.4c-0.4,0.2-0.7,0.6-0.9,1l-3.8-1.9c0.6-1.1,1.4-1.9,2.5-2.5
			c1.1-0.6,2.4-0.9,3.9-0.9c1.2,0,2.2,0.2,3.1,0.6c0.9,0.4,1.6,0.9,2.1,1.6c0.5,0.7,0.8,1.5,0.8,2.4c0,0.8-0.2,1.6-0.5,2.3
			c-0.3,0.7-1,1.5-2,2.4l-2.1,1.9H180.6z"/>
	</g>
</g>
</svg>
